#!OML:ASF F:\VICON\USERDATA\INSTALL\rory3\rory3.ASF
:FULLY-SPECIFIED
:DEGREES
360
root 1.4068 17.6281 -9.73056 -140.021 82.1011 -143.92
lowerback -10.1926 0.894377 6.56387
upperback -6.46593 0.950356 -1.97049
thorax -0.941076 0.375641 -5.67422
lowerneck -0.900541 -19.6609 -19.0003
upperneck 34.7629 -29.3165 9.84639
head 17.4594 -13.5186 2.03096
rclavicle -1.68967e-014 3.57812e-014
rhumerus 329.489 -31.9681 -355.382
rradius 11.5705
rwrist 45.8604
rhand -6.27804 6.66044
rfingers 7.12502
rthumb 19.5651 -22.3751
lclavicle -1.68967e-014 3.57812e-014
lhumerus -5.3756 -13.0888 0.702763
lradius 17.2087
lwrist -40.045
lhand 0.538313 32.1617
lfingers 7.12502
lthumb 26.1059 60.3874
rfemur -35.6477 -0.393686 377.23
rtibia 49.3244
rfoot 166.33 142.434
rtoes 49.8324
lfemur -25.8568 23.4284 -12.7257
ltibia 58.289
lfoot -170.466 -144.085
ltoes -8.81051
361
root 1.44915 17.6543 -9.52761 -123.176 83.6786 -127.317
lowerback -10.7497 0.205558 6.00773
upperback -6.37421 0.0343536 -1.09836
thorax -0.661106 -0.0436873 -4.52572
lowerneck -1.84323 -19.0432 -18.5591
upperneck 34.9394 -28.1695 9.36325
head 17.3172 -13.0236 1.99477
rclavicle 1.19271e-015 2.38542e-015
rhumerus 331.845 -25.3979 -360.094
rradius 12.1285
rwrist 39.7123
rhand -4.94612 5.52853
rfingers 7.12502
rthumb 20.8452 -23.3716
lclavicle 1.19271e-015 2.38542e-015
lhumerus -5.36174 -10.6144 0.78956
lradius 16.3144
lwrist -42.2304
lhand -1.74744 28.7587
lfingers 7.12502
lthumb 23.9156 57.2895
rfemur -36.3697 -0.371318 379.444
rtibia 49.4099
rfoot 161.747 141.438
rtoes 54.3792
lfemur -26.2097 22.6097 -10.6896
ltibia 58.6899
lfoot -145.403 -167.052
ltoes -49.4516
362
root 1.44355 17.6663 -9.47787 -75.5308 87.1874 -79.468
lowerback -9.99984 0.134971 5.12702
upperback -6.38427 0.0344437 -1.62099
thorax -1.06891 -0.0519614 -4.57234
lowerneck -2.77482 -18.5083 -16.8502
upperneck 35.1166 -27.0842 8.25968
head 16.8024 -12.487 1.56856
rclavicle 2.28602e-015 1.59028e-015
rhumerus 333.646 -16.5954 -365.494
rradius 12.8829
rwrist 31.3767
rhand -3.37023 5.54625
rfingers 7.12502
rthumb 22.3586 -23.18
lclavicle 2.28602e-015 1.59028e-015
lhumerus -5.04968 -8.90528 0.862858
lradius 15.6717
lwrist -44.7603
lhand -2.79105 32.154
lfingers 7.12502
lthumb 22.9145 60.8124
rfemur -36.9938 -1.05213 378.467
rtibia 49.5542
rfoot 170.801 140.261
rtoes 51.6209
lfemur -25.2771 21.2876 -11.9013
ltibia 58.507
lfoot -148.01 -163.009
ltoes -44.2507
363
root 1.46107 17.6735 -9.33794 -25.74 86.004 -30.083
lowerback -10.3725 0.00882281 4.57076
upperback -6.45548 -0.103562 -1.78554
thorax -0.949538 -0.106573 -4.44329
lowerneck -2.25451 -17.8813 -17.6146
upperneck 35.0919 -26.5691 9.50238
head 17.0152 -12.2633 2.33524
rclavicle -2.52457e-014 1.07344e-014
rhumerus 333.244 -8.6849 -369.562
rradius 13.8622
rwrist 24.0927
rhand -1.80198 5.26512
rfingers 7.12502
rthumb 23.8633 -23.2725
lclavicle -2.52457e-014 1.07344e-014
lhumerus -3.67914 -7.68054 1.20931
lradius 15.4303
lwrist -46.6948
lhand -1.9789 31.8484
lfingers 7.12502
lthumb 23.6936 60.408
rfemur -37.4194 3.65896 378.371
rtibia 49.4282
rfoot 163.5 138.77
rtoes 53.8749
lfemur -25.5741 19.3826 -11.4767
ltibia 58.2788
lfoot -152.976 -157.362
ltoes -35.3058
364
root 1.48699 17.6621 -9.21602 4.60935 83.3561 0.375586
lowerback -10.1712 -0.0834756 2.97958
upperback -6.54208 -0.0897812 -2.32645
thorax -1.13119 -0.0699274 -4.10434
lowerneck -2.72806 -17.4964 -16.727
upperneck 35.6733 -26.0228 9.19039
head 17.0875 -11.9305 2.2023
rclavicle 7.45443e-015 4.77083e-015
rhumerus 332.138 -1.16838 -373.428
rradius 15.1824
rwrist 17.3448
rhand -0.447185 5.14478
rfingers 7.12502
rthumb 25.162 -23.2168
lclavicle 7.45443e-015 4.77083e-015
lhumerus -2.50192 -8.01773 1.92453
lradius 15.7119
lwrist -47.4453
lhand -0.46486 30.2196
lfingers 7.12502
lthumb 25.145 58.5836
rfemur -37.8699 -0.202031 378.289
rtibia 49.473
rfoot 175.303 140.308
rtoes 50.3102
lfemur -24.9716 17.7648 -12.5162
ltibia 57.4509
lfoot -154.862 -157.639
ltoes -28.6202
365
root 1.51089 17.659 -9.08596 14.0811 80.688 9.70348
lowerback -10.3344 -0.44308 1.67894
upperback -6.61563 -0.46099 -2.53002
thorax -1.13542 -0.221112 -3.61428
lowerneck -3.40483 -16.9559 -16.1645
upperneck 36.3698 -25.1942 8.89972
head 17.2974 -11.5025 2.15541
rclavicle 1.38155e-014 1.19271e-015
rhumerus 330.953 5.46663 -376.992
rradius 17.0563
rwrist 10.6
rhand 1.45031 4.88713
rfingers 7.12502
rthumb 26.9788 -23.2065
lclavicle 1.38155e-014 1.19271e-015
lhumerus -2.17661 -14.3048 2.11569
lradius 16.2449
lwrist -39.7736
lhand -3.56012 29.7059
lfingers 7.12502
lthumb 22.1763 58.4539
rfemur -37.9508 0.512599 377.977
rtibia 49.2763
rfoot 174.75 140.939
rtoes 49.3125
lfemur -25.0126 15.9667 -12.8489
ltibia 56.5291
lfoot -156.594 -157.099
ltoes -35.2084
366
root 1.53103 17.6508 -8.94855 19.7488 78.2191 15.0694
lowerback -10.7804 -0.934696 0.276984
upperback -6.60705 -0.988711 -2.66884
thorax -0.895657 -0.442931 -3.02159
lowerneck -4.22509 -16.4619 -15.7082
upperneck 36.9343 -24.4449 8.71978
head 17.54 -11.1084 2.1291
rclavicle 3.16068e-014 -2.62396e-014
rhumerus 329.618 11.1266 -380.396
rradius 19.0569
rwrist 4.36023
rhand 2.72647 4.55346
rfingers 7.12502
rthumb 28.1992 -23.3452
lclavicle 3.16068e-014 -2.62396e-014
lhumerus -1.559 -9.67166 3.59118
lradius 16.7744
lwrist -46.5147
lhand -1.14901 30.4097
lfingers 7.12502
lthumb 24.4894 58.864
rfemur -38.0931 0.655503 377.85
rtibia 49.0916
rfoot 172.806 141.936
rtoes 48.0268
lfemur -25.3326 11.9825 -13.2917
ltibia 55.4348
lfoot -163.833 -151.048
ltoes -15.6226
367
root 1.54783 17.6161 -8.81106 22.2048 75.8548 17.1648
lowerback -11.0838 -1.47881 -0.789926
upperback -6.75176 -1.60409 -2.7532
thorax -0.887783 -0.719396 -2.574
lowerneck -4.99958 -15.9225 -14.9673
upperneck 37.6068 -23.651 8.41645
head 17.7577 -10.6742 2.03121
rclavicle -3.11595e-014 -1.15295e-014
rhumerus 327.522 17.8074 -384.893
rradius 20.98
rwrist -1.26908
rhand 1.21832 4.38219
rfingers 7.12502
rthumb 26.7568 -23.7456
lclavicle -3.11595e-014 -1.15295e-014
lhumerus -1.00379 -14.214 3.97594
lradius 17.4359
lwrist -42.3288
lhand -1.18609 30.4248
lfingers 7.12502
lthumb 24.4538 58.8839
rfemur -38.142 0.732795 378.144
rtibia 48.7946
rfoot 169.101 143.183
rtoes 48.3784
lfemur -25.941 8.55075 -13.2412
ltibia 54.4165
lfoot -169.375 -148
ltoes -3.6904
368
root 1.56505 17.5658 -8.68198 22.9973 73.6664 17.6527
lowerback -11.2694 -2.04526 -1.60941
upperback -6.87311 -2.27727 -2.62354
thorax -0.903691 -1.02992 -2.05091
lowerneck -5.97105 -15.3274 -14.4046
upperneck 38.377 -22.7653 8.17398
head 18.1295 -10.2037 1.98197
rclavicle -3.59303e-014 -8.34896e-015
rhumerus 325.87 22.2276 -388.238
rradius 23.1249
rwrist -5.84613
rhand 2.49201 3.62091
rfingers 7.12502
rthumb 27.975 -24.3145
lclavicle -3.59303e-014 -8.34896e-015
lhumerus -0.661044 -8.98649 5.69468
lradius 16.4301
lwrist -47.8723
lhand -1.68227 28.6402
lfingers 7.12502
lthumb 23.9781 57.1628
rfemur -38.0352 0.822621 378.702
rtibia 48.5174
rfoot 165.281 144.697
rtoes 48.4093
lfemur -26.6377 5.35806 -12.7695
ltibia 53.4015
lfoot -172.263 -146.409
ltoes -2.63654
369
root 1.57977 17.4994 -8.55439 24.1379 71.5087 18.6299
lowerback -11.3379 -2.60175 -2.65632
upperback -6.89834 -2.921 -2.47239
thorax -0.850592 -1.32013 -1.37758
lowerneck -6.72899 -14.7562 -14.0305
upperneck 38.7907 -21.9496 8.15996
head 18.3485 -9.78853 2.05923
rclavicle -2.01145e-014 2.2413e-014
rhumerus 324.266 25.5104 -390.932
rradius 25.3176
rwrist -9.57335
rhand 4.32316 3.09933
rfingers 7.12502
rthumb 29.7242 -24.5375
lclavicle -2.01145e-014 2.2413e-014
lhumerus -0.523546 -13.2309 6.83764
lradius 17.43
lwrist -43.4856
lhand -1.22334 29.7203
lfingers 7.12502
lthumb 24.4181 58.1842
rfemur -37.9346 0.792183 379.031
rtibia 48.3243
rfoot 162.64 146.164
rtoes 29.455
lfemur -27.307 2.12857 -12.379
ltibia 52.3752
lfoot -179.267 -144.479
ltoes 4.32673
370
root 1.58938 17.4207 -8.42633 25.771 69.3645 20.2056
lowerback -11.1201 -3.13429 -3.88384
upperback -7.06369 -3.52875 -2.55075
thorax -1.08278 -1.58356 -0.825551
lowerneck -6.97086 -14.204 -13.5747
upperneck 38.9892 -21.2625 8.29097
head 18.3516 -9.43197 2.20432
rclavicle -3.27016e-014 -3.10446e-014
rhumerus 322.048 27.6513 -393.673
rradius 27.5306
rwrist -12.0527
rhand 5.6414 2.83158
rfingers 7.12502
rthumb 30.9816 -24.5734
lclavicle -3.27016e-014 -3.10446e-014
lhumerus -0.0140614 -13.3433 8.29459
lradius 17.4384
lwrist -43.5495
lhand -1.34757 29.2154
lfingers 7.12502
lthumb 24.299 57.6954
rfemur -37.9421 0.680268 378.972
rtibia 48.217
rfoot 161.314 147.5
rtoes 45.1815
lfemur -27.9962 -1.22253 -12.1292
ltibia 51.2887
lfoot -195.109 -145.041
ltoes 24.5586
371
root 1.59724 17.345 -8.30336 26.9415 67.1871 21.3502
lowerback -10.6779 -3.44511 -4.81804
upperback -7.32449 -3.89457 -2.84354
thorax -1.55873 -1.72937 -0.618368
lowerneck -7.0652 -13.7628 -13.1463
upperneck 39.1437 -20.8486 8.63864
head 18.3903 -9.16757 2.39709
rclavicle 2.21691e-015 -1.64386e-014
rhumerus 319.223 27.9604 -396.133
rradius 29.8153
rwrist -12.6162
rhand 6.89517 2.89635
rfingers 7.12502
rthumb 32.1759 -24.2742
lclavicle 2.21691e-015 -1.64386e-014
lhumerus 1.09593 -13.9662 9.65291
lradius 17.635
lwrist -43.8796
lhand -1.18254 28.78
lfingers 7.12502
lthumb 24.4572 57.2387
rfemur -37.9941 0.903657 378.789
rtibia 48.1359
rfoot 160.673 148.579
rtoes 46.6115
lfemur -28.9879 -3.74874 -11.9688
ltibia 50.1994
lfoot -204.034 -146.334
ltoes 30.4111
372
root 1.60335 17.2686 -8.18787 27.0648 65.1564 21.4687
lowerback -10.4919 -4.01357 -5.59513
upperback -7.16479 -4.60774 -2.66387
thorax -1.40703 -2.06813 -0.0690262
lowerneck -8.11365 -13.1361 -12.4798
upperneck 39.1151 -19.9349 8.5798
head 18.3531 -8.69 2.40552
rclavicle -2.27608e-014 -3.40916e-014
rhumerus 317.88 28.5531 -398.113
rradius 32.1857
rwrist -13.4278
rhand 8.44864 2.97897
rfingers 7.12502
rthumb 33.6535 -23.881
lclavicle -2.27608e-014 -3.40916e-014
lhumerus 1.3886 -13.0463 11.4173
lradius 17.6436
lwrist -44.6664
lhand -0.960849 28.3841
lfingers 7.12502
lthumb 24.6697 56.8139
rfemur -37.9381 1.15055 378.989
rtibia 48.0735
rfoot 160.497 149.296
rtoes 46.2665
lfemur -29.8944 -5.7906 -11.2898
ltibia 49.1028
lfoot -214.045 -151.704
ltoes 38.5906
373
root 1.61176 17.1874 -8.06401 26.3658 63.2856 20.6715
lowerback -10.2899 -4.5815 -5.79991
upperback -7.16115 -5.37475 -2.46583
thorax -1.44907 -2.44688 0.184166
lowerneck -8.70704 -12.3365 -11.5641
upperneck 38.9344 -18.7853 8.40789
head 18.0212 -8.12607 2.40774
rclavicle 1.27222e-014 1.09332e-014
rhumerus 316.373 30.1112 -400.7
rradius 34.5683
rwrist -15.0243
rhand 9.93924 2.95275
rfingers 7.12502
rthumb 35.0687 -23.5872
lclavicle 1.27222e-014 1.09332e-014
lhumerus 1.46386 -12.3335 13.0141
lradius 17.6245
lwrist -45.0741
lhand -1.04486 27.9132
lfingers 7.12502
lthumb 24.5892 56.3539
rfemur -37.8305 1.39591 379.631
rtibia 48.008
rfoot 160.388 149.997
rtoes 43.9281
lfemur -30.9894 -7.34547 -10.1455
ltibia 48.0451
lfoot -218.403 -154.378
ltoes 39.9177
374
root 1.60097 17.105 -7.93351 26.0647 60.6887 20.2807
lowerback -9.83846 -4.91573 -6.43153
upperback -7.39366 -5.82802 -2.41757
thorax -1.86109 -2.63955 0.578673
lowerneck -8.9799 -11.6054 -10.8775
upperneck 38.9696 -17.7969 8.34581
head 17.8366 -7.6458 2.47582
rclavicle -5.2181e-015 6.95746e-015
rhumerus 314.494 31.2814 -403.367
rradius 36.9137
rwrist -15.9878
rhand 11.3109 2.68091
rfingers 7.12502
rthumb 36.3687 -23.5442
lclavicle -5.2181e-015 6.95746e-015
lhumerus 1.70593 -11.1013 14.8256
lradius 17.5843
lwrist -46.3438
lhand -0.914324 27.3269
lfingers 7.12502
lthumb 24.7143 55.7506
rfemur -37.8534 3.27362 379.552
rtibia 47.9582
rfoot 158.985 150.476
rtoes 42.76
lfemur -32.1767 -8.83912 -9.36887
ltibia 47.0407
lfoot -222.093 -155.947
ltoes 40.4716
